PathFileType	4	(X/Y/Z)	c:/Users/goper/Files/vsCode/490R/osim_files/C05/C05_SSWS_02.trc
DataRate	CameraRate	NumFrames	NumMarkers	Units                	OrigDataRate	OrigDataStartFrame	OrigNumFrames
250.00	250.00	10	36	mm	250.0	2354	3138
                Frame#	Time	LPSIS			LASIS			LTH1			LTH2			LTH3			LTH4			LLFE			LMFE			LSH1			LSH2			LSH3			LSH4			LLMAL			LMMAL			LCAL			LMTP5			LTOE			LMTP1			RPSIS			RASIS			RTH1			RTH2			RTH3			RTH4			RLFE			RMFE			RSH1			RSH2			RSH3			RSH4			RLMAL			RMMAL			RCAL			RMTP1			RTOE			RMTP5		
		X1	Y1	Z1	X2	Y2	Z2	X3	Y3	Z3	X4	Y4	Z4	X5	Y5	Z5	X6	Y6	Z6	X7	Y7	Z7	X8	Y8	Z8	X9	Y9	Z9	X10	Y10	Z10	X11	Y11	Z11	X12	Y12	Z12	X13	Y13	Z13	X14	Y14	Z14	X15	Y15	Z15	X16	Y16	Z16	X17	Y17	Z17	X18	Y18	Z18	X19	Y19	Z19	X20	Y20	Z20	X21	Y21	Z21	X22	Y22	Z22	X23	Y23	Z23	X24	Y24	Z24	X25	Y25	Z25	X26	Y26	Z26	X27	Y27	Z27	X28	Y28	Z28	X29	Y29	Z29	X30	Y30	Z30	X31	Y31	Z31	X32	Y32	Z32	X33	Y33	Z33	X34	Y34	Z34	X35	Y35	Z35	X36	Y36	Z36

2354	9.41200	0.00000	0.00000	0.00000	-3793.66260	1007.38489	301.52194	-3835.85938	710.96161	359.06696	0.00000	0.00000	0.00000	0.00000	0.00000	0.00000	0.00000	0.00000	0.00000	-3881.06323	550.23376	335.14264	-3885.23022	543.16650	212.62123	0.00000	0.00000	0.00000	-3865.25073	658.84656	351.89554	0.00000	0.00000	0.00000	0.00000	0.00000	0.00000	0.00000	0.00000	0.00000	0.00000	0.00000	0.00000	0.00000	0.00000	0.00000	-3437.03662	123.69678	102.73620	0.00000	0.00000	0.00000	0.00000	0.00000	0.00000	0.00000	0.00000	0.00000	-3785.31738	1014.44965	70.97945	-3687.60010	685.41589	29.09349	-3678.79736	624.53308	40.90403	-3615.35229	691.46643	20.21642	0.00000	0.00000	0.00000	0.00000	0.00000	0.00000	-3631.12695	533.36304	56.06236	-3510.81641	405.23581	41.24602	0.00000	0.00000	0.00000	-3565.35522	382.72092	50.11046	-3547.69531	339.50027	56.90820	0.00000	0.00000	0.00000	-3457.42749	130.06499	186.85794	-3367.53369	99.39931	149.81299	-3586.32446	56.57245	173.09392	-3606.44702	76.21277	125.34509	0.00000	0.00000	0.00000
2355	9.41600	0.00000	0.00000	0.00000	-3798.75488	1006.40454	301.70447	-3841.21924	710.17340	359.52255	0.00000	0.00000	0.00000	0.00000	0.00000	0.00000	0.00000	0.00000	0.00000	-3885.70508	549.21204	335.41986	-3889.28198	542.37134	212.94908	0.00000	0.00000	0.00000	-3870.46460	657.96558	352.16321	0.00000	0.00000	0.00000	0.00000	0.00000	0.00000	0.00000	0.00000	0.00000	0.00000	0.00000	0.00000	0.00000	0.00000	0.00000	-3437.36963	124.14355	102.67508	0.00000	0.00000	0.00000	0.00000	0.00000	0.00000	0.00000	0.00000	0.00000	-3790.03979	1013.45349	71.17937	-3691.15625	684.67029	29.23090	-3682.12085	623.78754	41.01788	-3618.96191	690.96851	20.38589	0.00000	0.00000	0.00000	0.00000	0.00000	0.00000	-3634.10254	532.72217	56.32207	-3513.00635	405.25800	41.47765	0.00000	0.00000	0.00000	-3567.52637	382.49780	50.31095	-3549.58765	339.33923	57.07912	0.00000	0.00000	0.00000	-3457.86401	130.45027	186.83025	-3368.10278	100.03038	149.79533	-3586.36475	56.54160	173.04544	-3606.55151	76.12991	125.29179	0.00000	0.00000	0.00000
2356	9.42000	0.00000	0.00000	0.00000	-3803.83594	1005.36340	301.93411	-3846.69678	709.46954	359.84259	0.00000	0.00000	0.00000	0.00000	0.00000	0.00000	0.00000	0.00000	0.00000	-3890.65356	548.35632	335.54495	-3893.61768	541.67340	213.32533	0.00000	0.00000	0.00000	-3875.78320	657.23254	352.34573	0.00000	0.00000	0.00000	0.00000	0.00000	0.00000	0.00000	0.00000	0.00000	-3525.72754	377.26538	28.02525	0.00000	0.00000	0.00000	-3438.99512	125.61253	101.92606	0.00000	0.00000	0.00000	0.00000	0.00000	0.00000	0.00000	0.00000	0.00000	-3794.78760	1012.39996	71.38914	-3694.78662	683.86273	29.36885	-3685.51953	623.02533	41.19451	-3622.67554	690.38940	20.54760	0.00000	0.00000	0.00000	0.00000	0.00000	0.00000	-3637.12915	532.06030	56.59970	-3515.26489	405.23135	41.67998	0.00000	0.00000	0.00000	-3569.69458	382.16492	50.55978	-3551.56494	339.21005	57.29755	0.00000	0.00000	0.00000	-3458.34692	130.87074	186.81270	-3368.11719	100.68867	149.59718	-3586.42969	56.52710	172.96080	-3606.70508	76.05904	125.25510	0.00000	0.00000	0.00000
2357	9.42400	0.00000	0.00000	0.00000	-3808.96338	1004.43823	302.22974	-3852.35181	708.85980	360.08075	0.00000	0.00000	0.00000	0.00000	0.00000	0.00000	0.00000	0.00000	0.00000	-3895.87939	547.65967	335.58926	-3898.56885	541.27313	213.70947	0.00000	0.00000	0.00000	-3881.40454	656.69708	352.41904	0.00000	0.00000	0.00000	0.00000	0.00000	0.00000	0.00000	0.00000	0.00000	-3530.06738	377.08685	27.11835	0.00000	0.00000	0.00000	-3438.53882	125.25974	102.57862	0.00000	0.00000	0.00000	0.00000	0.00000	0.00000	0.00000	0.00000	0.00000	-3799.55469	1011.36554	71.65938	-3698.45020	683.02710	29.56483	-3689.03369	622.26642	41.37894	-3626.48730	689.84412	20.73396	0.00000	0.00000	0.00000	0.00000	0.00000	0.00000	-3640.31396	531.38995	56.95385	-3517.70117	405.22610	41.94329	0.00000	0.00000	0.00000	-3572.03418	381.89395	50.82789	-3553.51831	339.01157	57.56192	0.00000	0.00000	0.00000	-3458.66333	131.16531	186.76526	-3368.44458	101.47068	149.54462	-3586.50293	56.50625	172.88699	-3606.81372	75.97808	125.21021	0.00000	0.00000	0.00000
2358	9.42800	0.00000	0.00000	0.00000	-3814.10059	1003.51813	302.56927	-3857.99292	708.25397	360.19199	0.00000	0.00000	0.00000	0.00000	0.00000	0.00000	0.00000	0.00000	0.00000	-3901.51099	547.22107	335.55206	-3903.95532	540.89276	214.07643	0.00000	0.00000	0.00000	0.00000	0.00000	0.00000	0.00000	0.00000	0.00000	-4015.09497	767.14746	198.02292	0.00000	0.00000	0.00000	-3534.56885	377.03003	26.09367	0.00000	0.00000	0.00000	-3439.09839	125.86239	102.44696	0.00000	0.00000	0.00000	0.00000	0.00000	0.00000	0.00000	0.00000	0.00000	-3804.30664	1010.30115	71.93923	-3702.19482	682.17883	29.77866	-3692.55542	621.43774	41.61450	-3630.36646	689.26843	20.91570	0.00000	0.00000	0.00000	0.00000	0.00000	0.00000	-3643.62769	530.71777	57.30326	-3520.18433	405.23746	42.22497	0.00000	0.00000	0.00000	-3574.42993	381.58887	51.16642	-3555.58179	338.79263	57.86583	0.00000	0.00000	0.00000	-3459.06958	131.54254	186.73892	-3369.03003	102.21638	149.46191	-3586.59058	56.51143	172.80875	-3606.99634	75.89369	125.12972	0.00000	0.00000	0.00000
2359	9.43200	0.00000	0.00000	0.00000	-3819.18530	1002.60376	302.93726	-3863.94971	707.88086	360.31796	0.00000	0.00000	0.00000	0.00000	0.00000	0.00000	0.00000	0.00000	0.00000	-3907.25024	546.78943	335.34451	-3909.75342	540.60291	214.34283	0.00000	0.00000	0.00000	0.00000	0.00000	0.00000	0.00000	0.00000	0.00000	0.00000	0.00000	0.00000	0.00000	0.00000	0.00000	-3539.17603	377.01727	25.02835	0.00000	0.00000	0.00000	-3443.51440	129.67293	102.21590	0.00000	0.00000	0.00000	0.00000	0.00000	0.00000	0.00000	0.00000	0.00000	-3809.11743	1009.25378	72.26212	-3706.07104	681.37024	30.06443	-3696.22168	620.65521	41.89729	-3634.12817	688.54773	21.15370	0.00000	0.00000	0.00000	0.00000	0.00000	0.00000	-3647.08105	530.07489	57.70174	-3522.71509	405.27563	42.52723	0.00000	0.00000	0.00000	-3576.81177	381.24011	51.52658	-3557.68945	338.59531	58.22597	0.00000	0.00000	0.00000	-3459.64478	132.05394	186.73717	-3369.21582	103.14487	149.37790	-3586.71729	56.55455	172.70729	-3607.16357	75.80434	125.07965	0.00000	0.00000	0.00000
2360	9.43600	0.00000	0.00000	0.00000	-3824.18848	1001.70044	303.35950	-3869.86060	707.53870	360.34286	0.00000	0.00000	0.00000	0.00000	0.00000	0.00000	0.00000	0.00000	0.00000	-3913.26245	546.50922	335.08667	-3915.90869	540.35889	214.48885	0.00000	0.00000	0.00000	-3895.66968	653.60480	355.73264	0.00000	0.00000	0.00000	0.00000	0.00000	0.00000	0.00000	0.00000	0.00000	0.00000	0.00000	0.00000	-3440.78662	127.85468	101.73837	0.00000	0.00000	0.00000	0.00000	0.00000	0.00000	0.00000	0.00000	0.00000	0.00000	0.00000	0.00000	-3813.89380	1008.16223	72.62511	-3709.93140	680.51312	30.37803	-3699.96924	619.81738	42.24953	-3638.04272	687.86652	21.41876	0.00000	0.00000	0.00000	0.00000	0.00000	0.00000	-3650.55664	529.36395	58.18816	-3525.38257	405.29425	42.89123	0.00000	0.00000	0.00000	-3579.31763	380.92526	51.94722	-3559.93555	338.49850	58.56857	0.00000	0.00000	0.00000	-3460.19971	132.53468	186.71814	-3369.53979	103.97955	149.35432	-3586.78003	56.54788	172.64819	-3607.32666	75.69759	125.00736	0.00000	0.00000	0.00000
2361	9.44000	0.00000	0.00000	0.00000	-3829.32739	1000.87354	303.83804	-3875.88550	707.22870	360.32623	0.00000	0.00000	0.00000	0.00000	0.00000	0.00000	0.00000	0.00000	0.00000	-3919.47339	546.28217	334.75592	-3922.48291	540.20404	214.45502	0.00000	0.00000	0.00000	-3901.68579	653.38104	355.54446	0.00000	0.00000	0.00000	0.00000	0.00000	0.00000	0.00000	0.00000	0.00000	0.00000	0.00000	0.00000	-3440.22046	127.65804	102.38586	0.00000	0.00000	0.00000	-3516.48022	362.69122	48.21144	0.00000	0.00000	0.00000	0.00000	0.00000	0.00000	-3818.54712	1007.16425	74.90071	-3713.96606	679.66339	30.74886	-3703.77148	619.00562	42.64255	-3642.16211	687.22620	21.72818	0.00000	0.00000	0.00000	0.00000	0.00000	0.00000	-3654.09668	528.63153	58.68221	-3527.97925	405.36441	43.32780	0.00000	0.00000	0.00000	-3581.84424	380.63257	52.35271	-3562.10156	338.28836	58.93821	0.00000	0.00000	0.00000	-3460.69751	132.96974	186.73819	-3370.29517	105.05383	149.39673	-3586.88379	56.56135	172.55807	-3607.52344	75.63522	124.94650	0.00000	0.00000	0.00000
2362	9.44400	0.00000	0.00000	0.00000	-3834.47510	1000.00745	304.34967	-3881.90942	706.96204	360.27078	0.00000	0.00000	0.00000	0.00000	0.00000	0.00000	0.00000	0.00000	0.00000	-3925.67847	546.00165	334.33807	-3929.22046	540.11096	214.27766	0.00000	0.00000	0.00000	-3907.86646	653.13312	355.34116	0.00000	0.00000	0.00000	0.00000	0.00000	0.00000	0.00000	0.00000	0.00000	0.00000	0.00000	0.00000	-3441.85645	129.11115	101.81350	0.00000	0.00000	0.00000	-3521.35132	362.79449	47.12346	0.00000	0.00000	0.00000	0.00000	0.00000	0.00000	-3823.50732	1006.05804	75.38364	-3717.99976	678.79742	31.17595	-3707.70386	618.16522	43.05807	-3646.19287	686.47589	22.07523	0.00000	0.00000	0.00000	0.00000	0.00000	0.00000	-3657.57129	527.83948	59.17306	-3530.62305	405.35550	43.75806	0.00000	0.00000	0.00000	-3584.46973	380.30115	52.75108	-3564.40796	338.15738	59.29342	0.00000	0.00000	0.00000	-3461.23096	133.44441	186.70425	-3370.50293	105.98344	149.32895	-3586.93921	56.53632	172.51651	-3607.71216	75.57186	124.86613	0.00000	0.00000	0.00000
2363	9.44800	0.00000	0.00000	0.00000	-3839.58643	999.21741	304.88559	-3887.98315	706.72498	360.18085	0.00000	0.00000	0.00000	0.00000	0.00000	0.00000	0.00000	0.00000	0.00000	-3931.95337	545.77734	333.87827	-3936.04736	540.09338	214.04855	0.00000	0.00000	0.00000	-3913.98633	653.01740	355.15268	0.00000	0.00000	0.00000	0.00000	0.00000	0.00000	0.00000	0.00000	0.00000	0.00000	0.00000	0.00000	-3441.40259	129.01865	102.38918	0.00000	0.00000	0.00000	-3526.33716	362.93890	46.09828	0.00000	0.00000	0.00000	0.00000	0.00000	0.00000	-3828.52954	1005.08734	75.87561	-3722.19067	677.94098	31.68657	-3711.70435	617.33917	43.56717	-3650.50391	685.80035	22.47970	0.00000	0.00000	0.00000	0.00000	0.00000	0.00000	-3661.37549	527.16492	59.70100	-3533.49878	405.52997	44.22295	0.00000	0.00000	0.00000	-3587.09839	379.99475	53.19946	-3566.69434	338.00751	59.71246	0.00000	0.00000	0.00000	-3461.90283	134.04190	186.67368	-3371.17310	107.09359	149.36018	-3587.03076	56.54996	172.45590	-3607.87109	75.50047	124.79715	0.00000	0.00000	0.00000
